<svg xmlns="http://www.w3.org/2000/svg" xmlns:xlink="http://www.w3.org/1999/xlink"
width="24" height="2400" viewBox="0 0 24 2400">
  <svg width="24" height="24" viewBox="0 0 24 24" id="ic_arrow_back" y="0">
    <path d="M0 0h24v24h-24z" fill="none"/>
    <path d="M20 11h-12.17l5.59-5.59-1.42-1.41-8 8 8 8 1.41-1.41-5.58-5.59h12.17v-2z"/>
  </svg>
  <svg width="24" height="24" viewBox="0 0 24 24" id="ic_menu">
    <path d="M0 0h24v24h-24z" fill="none"/>
    <path d="M3 18h18v-2h-18v2zm0-5h18v-2h-18v2zm0-7v2h18v-2h-18z"/>
  </svg>
  <svg width="24" height="24" viewBox="0 0 24 24" id="ic_note_add" y="24">
    <path d="M0 0h24v24h-24z" fill="none"/>
    <path d="M14 2h-8c-1.1 0-1.99.9-1.99 2l-.01 16c0 1.1.89 2 1.99 2h12.01c1.1 0 2-.9 2-2v-12l-6-6zm2 14h-3v3h-2v-3h-3v-2h3v-3h2v3h3v2zm-3-7v-5.5l5.5 5.5h-5.5z"/>
  </svg>
  <svg width="24" height="24" viewBox="0 0 24 24" id="ic_share" y="48">
    <path d="M0 0h24v24h-24z" fill="none"/>
    <path d="M18 16.08c-.76 0-1.44.3-1.96.77l-7.13-4.15c.05-.23.09-.46.09-.7s-.04-.47-.09-.7l7.05-4.11c.54.5 1.25.81 2.04.81 1.66 0 3-1.34 3-3s-1.34-3-3-3-3 1.34-3 3c0 .24.04.47.09.7l-7.05 4.11c-.54-.5-1.25-.81-2.04-.81-1.66 0-3 1.34-3 3s1.34 3 3 3c.79 0 1.5-.31 2.04-.81l7.12 4.16c-.05.21-.08.43-.08.65 0 1.61 1.31 2.92 2.92 2.92 1.61 0 2.92-1.31 2.92-2.92s-1.31-2.92-2.92-2.92z"/>
  </svg>
  <svg width="24" height="24" viewBox="0 0 24 24" id="ic_list" y="72">
    <path d="M3 13h2v-2h-2v2zm0 4h2v-2h-2v2zm0-8h2v-2h-2v2zm4 4h14v-2h-14v2zm0 4h14v-2h-14v2zm0-10v2h14v-2h-14z"/>
    <path d="M0 0h24v24h-24z" fill="none"/>
  </svg>
  <svg width="24" height="24" viewBox="0 0 24 24" id="ic_more_vert" y="96">
    <path d="M0 0h24v24h-24z" fill="none"/>
    <path d="M12 8c1.1 0 2-.9 2-2s-.9-2-2-2-2 .9-2 2 .9 2 2 2zm0 2c-1.1 0-2 .9-2 2s.9 2 2 2 2-.9 2-2-.9-2-2-2zm0 6c-1.1 0-2 .9-2 2s.9 2 2 2 2-.9 2-2-.9-2-2-2z"/>
  </svg>
  <svg width="24" height="24" viewBox="0 0 24 24" id="ic_today" y="120">
    <path d="M0 0h24v24h-24z" fill="none"/>
    <path d="M19 3h-1v-2h-2v2h-8v-2h-2v2h-1c-1.11 0-1.99.9-1.99 2l-.01 14c0 1.1.89 2 2 2h14c1.1 0 2-.9 2-2v-14c0-1.1-.9-2-2-2zm0 16h-14v-11h14v11zm-12-9h5v5h-5z"/>
  </svg>
  <svg width="24" height="24" viewBox="0 0 24 24" id="ic_event_available" y="144">
    <path d="M0 0h24v24h-24z" fill="none"/>
    <path d="M16.53 11.06l-1.06-1.06-4.88 4.88-2.12-2.12-1.06 1.06 3.18 3.18 5.94-5.94zm2.47-8.06h-1v-2h-2v2h-8v-2h-2v2h-1c-1.11 0-1.99.9-1.99 2l-.01 14c0 1.1.89 2 2 2h14c1.1 0 2-.9 2-2v-14c0-1.1-.9-2-2-2zm0 16h-14v-11h14v11z"/>
  </svg>
  <svg width="24" height="24" viewBox="0 0 24 24" id="ic_perm_device_info" y="168">
    <path d="M0 0h24v24h-24z" fill="none"/>
    <path d="M13 7h-2v2h2v-2zm0 4h-2v6h2v-6zm4-9.99l-10-.01c-1.1 0-2 .9-2 2v18c0 1.1.9 2 2 2h10c1.1 0 2-.9 2-2v-18c0-1.1-.9-1.99-2-1.99zm0 17.99h-10v-14h10v14z"/>
  </svg>
  <svg width="24" height="24" viewBox="0 0 24 24" id="ic_perm_identity" y="192">
    <path d="M12 5.9c1.16 0 2.1.94 2.1 2.1s-.94 2.1-2.1 2.1-2.1-.94-2.1-2.1.94-2.1 2.1-2.1m0 9c2.97 0 6.1 1.46 6.1 2.1v1.1h-12.2v-1.1c0-.64 3.13-2.1 6.1-2.1m0-10.9c-2.21 0-4 1.79-4 4s1.79 4 4 4 4-1.79 4-4-1.79-4-4-4zm0 9c-2.67 0-8 1.34-8 4v3h16v-3c0-2.66-5.33-4-8-4z"/>
    <path d="M0 0h24v24h-24z" fill="none"/>
  </svg>
  <svg width="24" height="24" viewBox="0 0 24 24" id="ic_description" y="216">
    <path d="M0 0h24v24h-24z" fill="none"/>
    <path d="M14 2h-8c-1.1 0-1.99.9-1.99 2l-.01 16c0 1.1.89 2 1.99 2h12.01c1.1 0 2-.9 2-2v-12l-6-6zm2 16h-8v-2h8v2zm0-4h-8v-2h8v2zm-3-5v-5.5l5.5 5.5h-5.5z"/>
  </svg>
  <svg width="24" height="24" viewBox="0 0 24 24" id="ic_map" y="240">
    <path d="M20.5 3l-.16.03-5.34 2.07-6-2.1-5.64 1.9c-.21.07-.36.25-.36.48v15.12c0 .28.22.5.5.5l.16-.03 5.34-2.07 6 2.1 5.64-1.9c.21-.07.36-.25.36-.48v-15.12c0-.28-.22-.5-.5-.5zm-5.5 16l-6-2.11v-11.89l6 2.11v11.89z"/>
    <path d="M0 0h24v24h-24z" fill="none"/>
  </svg>
  <svg width="24" height="24" viewBox="0 0 24 24" id="ic_slideshow" y="264">
    <path d="M0 0h24v24h-24z" fill="none"/>
    <path d="M10 8v8l5-4-5-4zm9-5h-14c-1.1 0-2 .9-2 2v14c0 1.1.9 2 2 2h14c1.1 0 2-.9 2-2v-14c0-1.1-.9-2-2-2zm0 16h-14v-14h14v14z"/>
  </svg>
  <svg width="24" height="24" viewBox="0 0 24 24" id="ic_expand_more" y="288">
    <path d="M16.59 8.59l-4.59 4.58-4.59-4.58-1.41 1.41 6 6 6-6z"/>
    <path d="M0 0h24v24h-24z" fill="none"/>
  </svg>
  <svg width="24" height="24" viewBox="0 0 24 24" id="ic_expand_less" y="312">
    <path d="M12 8l-6 6 1.41 1.41 4.59-4.58 4.59 4.58 1.41-1.41z"/>
    <path d="M0 0h24v24h-24z" fill="none"/>
  </svg>
  <svg width="24" height="24" viewBox="0 0 24 24" id="ic_error" y="336">
    <path d="M0 0h24v24h-24z" fill="none"/>
    <path d="M12 2c-5.52 0-10 4.48-10 10s4.48 10 10 10 10-4.48 10-10-4.48-10-10-10zm1 15h-2v-2h2v2zm0-4h-2v-6h2v6z"/>
  </svg>
  <svg width="24" height="24" viewBox="0 0 24 24" id="ic_close" y="360">
    <path d="M19 6.41l-1.41-1.41-5.59 5.59-5.59-5.59-1.41 1.41 5.59 5.59-5.59 5.59 1.41 1.41 5.59-5.59 5.59 5.59 1.41-1.41-5.59-5.59z"/>
    <path d="M0 0h24v24h-24z" fill="none"/>
  </svg>
  <svg width="24" height="24" viewBox="0 0 24 24" id="ic_add" y="384">
    <path d="M19 13h-6v6h-2v-6h-6v-2h6v-6h2v6h6v2z"/>
    <path d="M0 0h24v24h-24z" fill="none"/>
  </svg>
  <svg width="24" height="24" viewBox="0 0 24 24" id="ic_photo" y="408">
    <path d="M0 0h24v24h-24z" fill="none"/>
    <path d="M21 19v-14c0-1.1-.9-2-2-2h-14c-1.1 0-2 .9-2 2v14c0 1.1.9 2 2 2h14c1.1 0 2-.9 2-2zm-12.5-5.5l2.5 3.01 3.5-4.51 4.5 6h-14l3.5-4.5z"/>
  </svg>
  <svg width="24" height="24" viewBox="0 0 24 24" id="ic_check" y="432">
    <path d="M0 0h24v24h-24z" fill="none"/>
    <path d="M9 16.17l-4.17-4.17-1.42 1.41 5.59 5.59 12-12-1.41-1.41z"/>
  </svg>
  <svg width="24" height="24" viewBox="0 0 24 24" id="ic_google_plus" y="456">
  <path d="M13.103 1.5c0 0-4.71 0-6.28 0-2.815 0-5.465 2.133-5.465 4.604 0 2.525 1.919 4.562 4.783 4.562 0.199 0 0.393-0.004 0.582-0.018-0.186 0.356-0.319 0.757-0.319 1.173 0 0.702 0.377 1.271 0.855 1.735-0.361 0-0.709 0.011-1.089 0.011-3.487-0-6.171 2.221-6.171 4.524 0 2.268 2.942 3.687 6.43 3.687 3.976 0 6.171-2.256 6.171-4.524 0-1.819-0.537-2.908-2.196-4.081-0.568-0.402-1.653-1.379-1.653-1.953 0-0.673 0.192-1.005 1.205-1.796 1.039-0.812 1.774-1.952 1.774-3.279 0-1.58-0.704-3.119-2.024-3.627h1.991l1.405-1.016zM10.91 16.862c0.050 0.21 0.077 0.427 0.077 0.648 0 1.833-1.181 3.265-4.57 3.265-2.41 0-4.151-1.526-4.151-3.359 0-1.796 2.159-3.292 4.569-3.266 0.563 0.006 1.087 0.096 1.563 0.251 1.308 0.91 2.247 1.424 2.512 2.461zM7.050 10.026c-1.618-0.048-3.156-1.81-3.435-3.934s0.806-3.751 2.423-3.703c1.617 0.049 3.156 1.753 3.435 3.878s-0.806 3.808-2.423 3.759zM19.5 6v-4.5h-1.5v4.5h-4.5v1.5h4.5v4.5h1.5v-4.5h4.5v-1.5z"></path>
  </svg>
  <svg width="24" height="24" viewBox="0 0 24 24" id="ic_twitter" y="480">
    <path d="M24 4.557c-0.883 0.392-1.832 0.656-2.828 0.775 1.017-0.609 1.797-1.574 2.165-2.724-0.951 0.564-2.005 0.974-3.127 1.195-0.898-0.957-2.178-1.555-3.594-1.555-2.719 0-4.924 2.204-4.924 4.924 0 0.386 0.044 0.762 0.127 1.122-4.092-0.205-7.72-2.166-10.149-5.145-0.424 0.727-0.667 1.573-0.667 2.475 0 1.708 0.869 3.215 2.19 4.098-0.807-0.026-1.566-0.247-2.23-0.616-0 0.021-0 0.041-0 0.062 0 2.386 1.697 4.376 3.95 4.828-0.413 0.112-0.848 0.173-1.297 0.173-0.317 0-0.626-0.031-0.926-0.088 0.627 1.956 2.445 3.38 4.6 3.419-1.685 1.321-3.808 2.108-6.115 2.108-0.397 0-0.789-0.023-1.175-0.069 2.179 1.397 4.767 2.212 7.548 2.212 9.057 0 14.009-7.503 14.009-14.010 0-0.213-0.005-0.426-0.014-0.637 0.962-0.694 1.797-1.561 2.457-2.549z"></path>
  </svg>
  <svg width="24" height="24" viewBox="0 0 24 24" id="ic_facebook" y="504">
    <path d="M13.497 24h-4.497v-12h-3v-4.136l3-0.001-0.005-2.436c0-3.374 0.915-5.427 4.889-5.427h3.309v4.136h-2.068c-1.548 0-1.622 0.578-1.622 1.657l-0.006 2.070h3.719l-0.438 4.136-3.278 0.001-0.003 12z"></path>
  </svg>
  <svg width="24" height="24" viewBox="0 0 24 24" id="ic_language" y="528">
    <path d="M0 0h24v24h-24z" fill="none"/>
    <path d="M11.99 2c-5.52 0-9.99 4.48-9.99 10s4.47 10 9.99 10c5.53 0 10.01-4.48 10.01-10s-4.48-10-10.01-10zm6.93 6h-2.95c-.32-1.25-.78-2.45-1.38-3.56 1.84.63 3.37 1.91 4.33 3.56zm-6.92-3.96c.83 1.2 1.48 2.53 1.91 3.96h-3.82c.43-1.43 1.08-2.76 1.91-3.96zm-7.74 9.96c-.16-.64-.26-1.31-.26-2s.1-1.36.26-2h3.38c-.08.66-.14 1.32-.14 2 0 .68.06 1.34.14 2h-3.38zm.82 2h2.95c.32 1.25.78 2.45 1.38 3.56-1.84-.63-3.37-1.9-4.33-3.56zm2.95-8h-2.95c.96-1.66 2.49-2.93 4.33-3.56-.6 1.11-1.06 2.31-1.38 3.56zm3.97 11.96c-.83-1.2-1.48-2.53-1.91-3.96h3.82c-.43 1.43-1.08 2.76-1.91 3.96zm2.34-5.96h-4.68c-.09-.66-.16-1.32-.16-2 0-.68.07-1.35.16-2h4.68c.09.65.16 1.32.16 2 0 .68-.07 1.34-.16 2zm.25 5.56c.6-1.11 1.06-2.31 1.38-3.56h2.95c-.96 1.65-2.49 2.93-4.33 3.56zm1.77-5.56c.08-.66.14-1.32.14-2 0-.68-.06-1.34-.14-2h3.38c.16.64.26 1.31.26 2s-.1 1.36-.26 2h-3.38z"/>
  </svg>
  <svg width="24" height="24" viewBox="0 0 24 24" id="ic_delete" y="552">
    <path d="M6 19c0 1.1.9 2 2 2h8c1.1 0 2-.9 2-2v-12h-12v12zm13-15h-3.5l-1-1h-5l-1 1h-3.5v2h14v-2z"/>
    <path d="M0 0h24v24h-24z" fill="none"/>
  </svg>
  <svg width="24" height="24" viewBox="0 0 24 24" id="ic_call" y="576">
    <path d="M0 0h24v24h-24z" fill="none"/>
    <path d="M6.62 10.79c1.44 2.83 3.76 5.14 6.59 6.59l2.2-2.2c.27-.27.67-.36 1.02-.24 1.12.37 2.33.57 3.57.57.55 0 1 .45 1 1v3.49c0 .55-.45 1-1 1-9.39 0-17-7.61-17-17 0-.55.45-1 1-1h3.5c.55 0 1 .45 1 1 0 1.25.2 2.45.57 3.57.11.35.03.74-.25 1.02l-2.2 2.2z"/>
  </svg>
</svg>